<svg width="16" height="14" viewBox="0 0 16 14" fill="none" xmlns="http://www.w3.org/2000/svg">
<path d="M4.86281 10.1741C3.92748 10.1539 3.10342 9.66848 2.6093 8.94032C2.88004 8.92759 3.14636 8.88861 3.39986 8.8193L3.36821 7.84714C2.34438 7.63771 1.51754 6.86072 1.24005 5.85559C1.52069 5.93159 1.81432 5.97625 2.11251 5.98191L3.81772 6.01427L2.3999 5.06634C1.66046 4.57197 1.165 3.71771 1.165 2.756C1.165 2.50179 1.19957 2.25618 1.2641 2.02181C2.94591 3.77366 5.26386 4.90225 7.85064 5.02841L8.5083 5.06048L8.36261 4.41837C8.31875 4.22507 8.299 4.01351 8.299 3.781C8.299 2.24865 9.53863 1 11.077 1C11.8699 1 12.5976 1.33621 13.1085 1.88029L13.2986 2.0827L13.5709 2.02832C13.7907 1.98441 14.007 1.93091 14.2194 1.86792C14.1052 1.96363 13.9829 2.05054 13.8537 2.1277L14.173 3.05301C14.2777 3.0397 14.3819 3.0243 14.4854 3.0068C14.3512 3.12208 14.2116 3.23133 14.0666 3.33425L13.8428 3.49307L13.8566 3.76715C13.8634 3.90141 13.868 4.03238 13.868 4.166C13.868 8.28496 10.7345 13 5.032 13C3.96441 13 2.94507 12.8135 2.00157 12.4689C3.18032 12.2651 4.26098 11.7711 5.16007 11.0678L6.26382 10.2044L4.86281 10.1741Z" fill="#34ACA7" stroke="black"/>
</svg>
